<svg version="1.0" xmlns="http://www.w3.org/2000/svg"
 width="867.000000pt" height="1280.000000pt" viewBox="0 0 867.000000 1280.000000"
 preserveAspectRatio="xMidYMid meet">
<g transform="translate(0.000000,1280.000000) scale(0.100000,-0.100000)"
fill="#000000" stroke="none">
<path d="M3965 12789 c-71 -5 -182 -18 -247 -29 -64 -11 -128 -20 -142 -20
-15 0 -37 -7 -49 -15 -13 -8 -68 -22 -122 -30 -249 -40 -406 -93 -665 -227
-247 -128 -490 -261 -602 -329 -48 -30 -128 -79 -178 -109 -50 -30 -142 -99
-203 -153 -77 -66 -140 -112 -201 -144 -107 -55 -160 -105 -241 -228 -83 -126
-146 -204 -200 -249 -33 -27 -56 -58 -76 -104 -18 -40 -62 -103 -115 -166 -47
-55 -116 -146 -153 -201 -37 -55 -84 -122 -104 -148 -20 -27 -37 -53 -37 -59
0 -6 -58 -135 -129 -287 -70 -152 -138 -305 -151 -340 -12 -35 -30 -78 -40
-95 -27 -46 -61 -162 -140 -473 -38 -153 -83 -330 -100 -393 -59 -224 -64
-274 -64 -645 -1 -277 2 -355 16 -420 9 -44 19 -120 23 -170 15 -220 58 -433
130 -650 30 -88 59 -196 65 -240 7 -44 20 -114 30 -155 21 -89 117 -310 187
-430 27 -47 75 -129 107 -184 31 -54 75 -133 96 -176 21 -43 61 -106 88 -141
26 -35 63 -86 82 -114 47 -72 75 -100 159 -163 41 -30 138 -116 215 -190 182
-174 299 -275 466 -400 74 -56 218 -165 320 -242 117 -89 205 -148 238 -160
30 -11 68 -32 86 -45 45 -34 160 -86 296 -133 63 -22 144 -54 180 -71 45 -21
99 -35 175 -47 198 -29 208 -29 239 -2 l28 24 -12 329 c-6 182 -12 482 -14
667 l-3 337 -24 20 c-43 36 -138 82 -262 127 -137 50 -205 91 -281 169 -28 29
-136 140 -241 247 -272 278 -283 290 -306 344 -12 27 -49 79 -82 117 -74 84
-118 154 -208 332 -39 77 -81 154 -94 170 -31 42 -61 104 -70 144 -4 19 -32
89 -62 155 -74 165 -95 241 -102 366 -5 83 -11 114 -30 149 -12 24 -27 69 -32
100 -4 31 -11 66 -14 77 -5 16 -1 23 14 27 19 5 21 13 21 71 0 37 7 102 16
144 18 84 14 245 -7 283 -9 18 -6 31 15 73 14 28 32 83 40 121 46 230 150 588
220 753 30 70 59 143 65 162 6 19 27 62 47 94 19 33 43 81 53 107 41 107 194
313 346 464 92 92 353 282 482 352 49 25 104 59 124 74 19 15 48 31 65 35 40
10 138 60 204 104 96 65 212 120 274 130 32 5 73 14 90 19 17 5 48 12 68 16
28 4 44 15 65 45 39 54 73 71 166 82 45 5 120 22 168 38 47 17 107 30 132 30
25 0 80 7 123 16 73 15 84 15 144 0 36 -9 119 -23 185 -31 66 -7 156 -21 200
-30 87 -18 420 -124 500 -160 28 -12 66 -25 85 -28 19 -4 112 -45 205 -91 94
-47 209 -102 256 -124 92 -42 236 -144 361 -253 43 -38 95 -80 117 -94 48 -30
174 -178 249 -293 68 -105 139 -255 190 -402 22 -63 60 -166 86 -227 25 -62
52 -136 60 -165 8 -29 21 -69 29 -88 8 -19 32 -98 52 -175 20 -77 52 -189 70
-250 45 -149 70 -269 111 -530 39 -253 43 -380 19 -626 -19 -195 -33 -265 -94
-469 -120 -398 -179 -527 -369 -810 -66 -98 -119 -161 -251 -293 -274 -279
-378 -370 -456 -401 -72 -29 -282 -165 -333 -215 -24 -24 -32 -42 -36 -84 -3
-28 -7 -288 -9 -577 -5 -576 -2 -554 -66 -614 -17 -17 -31 -40 -31 -52 0 -35
99 -150 170 -197 32 -22 85 -21 178 2 43 11 119 29 170 40 83 18 113 32 289
132 109 62 222 123 253 137 30 14 81 45 113 70 32 24 95 60 140 78 45 19 97
48 117 64 19 17 61 48 93 70 31 23 57 45 57 50 0 17 62 81 94 97 36 18 216
191 257 246 15 22 76 92 135 158 59 65 118 135 132 156 14 21 50 65 82 98 62
66 181 242 198 292 6 18 28 58 49 90 22 32 66 105 98 163 32 58 76 132 99 165
22 32 54 98 71 145 18 47 60 140 93 207 34 67 66 143 73 170 6 26 29 84 50
128 45 92 105 315 125 458 7 54 23 145 34 204 11 58 18 115 14 126 -3 11 2
190 12 398 15 313 15 392 5 456 -7 43 -18 142 -26 220 -8 78 -18 150 -23 160
-5 10 -13 38 -17 63 -3 25 -17 83 -30 130 -13 47 -28 121 -34 165 -6 44 -23
123 -37 175 -14 52 -30 127 -34 165 -16 127 -32 200 -51 231 -10 17 -19 41
-19 52 0 11 -21 48 -47 82 -69 89 -80 108 -88 149 -10 55 -77 180 -100 187
-11 4 -30 15 -41 26 -19 16 -20 24 -11 48 14 36 -5 87 -91 240 -36 63 -87 156
-114 205 -28 50 -71 119 -97 154 -25 35 -72 100 -103 144 -32 45 -77 102 -101
127 -24 25 -56 63 -72 85 -15 22 -54 67 -86 100 -32 33 -130 137 -218 230
-234 249 -328 330 -476 415 -49 29 -113 69 -140 90 -28 21 -89 57 -137 79 -48
21 -133 68 -190 104 -243 152 -387 232 -463 258 -45 14 -105 39 -134 53 -51
26 -124 43 -551 125 -85 16 -180 33 -210 36 -30 4 -79 17 -110 28 -50 18 -84
20 -385 22 -181 2 -388 -1 -460 -6z" style="fill:#38A000;fill-opacity:1"/>
<path d="M4420 11103 c-94 -15 -240 -47 -266 -58 -41 -17 -111 -80 -132 -119
-13 -24 -17 -59 -17 -156 0 -135 12 -248 50 -460 14 -74 34 -205 45 -290 27
-207 38 -257 66 -311 29 -54 54 -163 54 -234 0 -28 6 -59 13 -70 8 -11 19 -42
26 -70 7 -27 19 -57 27 -66 8 -9 20 -48 26 -85 16 -106 107 -272 163 -298 61
-29 269 -68 385 -73 95 -4 139 -1 253 21 81 15 156 35 180 48 23 12 43 23 45
24 1 1 9 39 16 86 13 79 13 90 -6 164 -12 43 -22 104 -24 134 -28 442 -28 407
-4 444 19 32 21 45 16 143 -5 119 -18 270 -41 498 -9 83 -19 221 -24 307 -5
110 -12 162 -22 174 -8 9 -59 51 -114 92 -90 68 -110 78 -200 104 -138 39
-420 67 -515 51z" style="fill:#38A000;fill-opacity:1"/>
<path d="M3550 10939 c-30 -5 -77 -21 -105 -35 -27 -14 -72 -33 -100 -41 -81
-24 -218 -100 -292 -161 -123 -103 -167 -231 -139 -408 8 -55 20 -173 26 -264
11 -170 24 -259 66 -465 13 -66 31 -174 39 -240 8 -66 22 -149 30 -185 8 -36
26 -122 39 -192 21 -111 30 -139 72 -214 27 -47 68 -103 91 -125 42 -38 44
-39 121 -39 139 0 340 44 510 111 131 52 361 168 372 189 26 49 -4 233 -51
319 -20 34 -35 83 -45 140 -8 47 -21 106 -29 131 -15 49 -46 239 -45 280 0 14
-9 44 -21 65 -28 55 -45 122 -58 240 -7 55 -18 125 -26 155 -8 30 -18 91 -24
135 -5 44 -17 109 -25 145 -8 36 -18 121 -22 190 -7 142 -21 178 -93 243 l-41
37 -98 -1 c-53 -1 -122 -5 -152 -10z" style="fill:#38A000;fill-opacity:1"/>
<path d="M5616 10726 c-76 -17 -91 -36 -100 -123 -4 -37 -16 -102 -26 -145
-24 -92 -24 -105 -5 -142 21 -39 19 -136 -5 -226 -17 -65 -17 -76 -5 -90 8 -9
15 -30 15 -47 0 -52 -37 -156 -75 -208 -40 -57 -42 -67 -16 -103 29 -42 50
-117 65 -236 8 -60 19 -113 25 -119 7 -7 11 -65 11 -154 0 -166 7 -191 72
-255 35 -35 64 -51 148 -81 58 -21 130 -48 160 -59 34 -13 89 -23 142 -26 74
-4 97 -1 160 21 40 14 91 28 113 32 56 11 87 28 125 72 76 86 82 116 115 578
9 116 20 228 26 250 14 48 5 197 -15 274 -21 75 -53 138 -146 281 -87 133
-125 180 -147 180 -32 0 -94 43 -139 96 -55 64 -120 109 -263 183 -112 57
-152 65 -235 47z" style="fill:#38A000;fill-opacity:1"/>
<path d="M2433 10171 c-45 -16 -99 -37 -120 -48 -21 -12 -67 -36 -103 -54 -46
-24 -96 -64 -171 -139 -127 -127 -156 -172 -165 -260 -12 -122 24 -493 56
-575 7 -16 16 -75 20 -130 5 -55 17 -136 28 -180 11 -44 27 -120 36 -170 9
-49 23 -110 31 -135 7 -25 18 -84 24 -133 8 -66 16 -95 34 -120 14 -17 34 -50
45 -72 36 -72 117 -174 163 -204 83 -57 196 -54 251 6 40 43 100 72 150 73 45
0 95 38 225 172 139 142 138 140 138 438 l0 245 -32 95 c-47 139 -51 160 -78
377 -14 108 -32 225 -40 258 -8 33 -19 121 -25 195 -5 74 -14 152 -20 172 -24
83 -224 219 -321 217 -24 0 -81 -13 -126 -28z" style="fill:#38A000;fill-opacity:1"/>
<path d="M4516 8801 c-4 -6 -28 -11 -54 -11 -109 -1 -258 -47 -462 -143 -108
-51 -170 -108 -216 -198 -37 -73 -67 -195 -54 -219 6 -10 10 -32 10 -48 0 -46
48 -185 81 -235 39 -60 148 -161 202 -188 23 -12 57 -32 75 -46 20 -15 83 -38
160 -59 70 -19 169 -46 221 -59 51 -14 102 -30 112 -35 10 -6 29 -10 44 -10
38 0 85 -27 85 -49 0 -67 -224 -42 -405 44 -68 32 -112 46 -260 80 -38 9 -121
36 -185 59 -110 41 -313 86 -525 115 -44 6 -134 30 -200 53 -116 41 -124 42
-245 43 -69 0 -156 -6 -194 -14 -62 -12 -75 -20 -118 -62 -60 -60 -103 -148
-119 -242 -25 -149 8 -409 74 -593 94 -259 120 -307 199 -364 23 -17 54 -48
68 -70 14 -21 73 -74 130 -118 138 -106 304 -253 341 -304 38 -53 45 -82 64
-268 40 -385 45 -542 45 -1225 0 -368 4 -758 10 -865 14 -249 10 -594 -7 -611
-20 -20 -400 -30 -748 -22 l-300 8 -63 33 c-77 40 -101 39 -125 -8 -17 -32
-18 -54 -13 -245 4 -115 11 -239 16 -275 15 -102 33 -724 27 -951 -8 -275 12
-360 89 -382 16 -5 44 -13 61 -18 26 -8 45 -6 95 13 62 23 68 23 513 23 470 0
507 -3 519 -44 3 -9 10 -281 16 -606 13 -644 10 -622 72 -668 26 -19 32 -20
140 -7 78 9 338 14 848 16 404 3 745 7 757 9 12 3 24 13 27 23 9 30 31 472 30
607 -1 72 -2 254 -4 406 -1 152 1 286 5 298 8 27 42 35 130 32 144 -4 349 -4
645 0 268 3 313 2 368 -13 86 -24 128 -23 142 3 14 25 4 332 -16 509 -8 69
-17 224 -21 345 -6 239 6 369 50 504 17 54 21 93 21 217 1 149 1 151 -27 191
-42 61 -63 69 -139 49 -58 -15 -141 -20 -728 -51 -58 -3 -147 -10 -199 -16
-156 -18 -201 4 -166 81 14 32 15 48 6 106 -24 158 -33 670 -27 1444 8 850 14
995 47 1068 11 26 27 71 35 100 21 77 59 137 140 218 78 79 163 134 207 134
16 0 88 23 160 51 l132 52 87 88 c47 49 91 89 98 89 6 0 64 34 130 75 112 71
121 80 173 158 30 45 73 104 95 131 132 159 166 321 167 796 0 287 -1 311 -24
400 -27 112 -91 251 -154 336 -74 100 -77 102 -314 130 -182 23 -236 25 -438
21 -190 -3 -238 -7 -275 -22 -61 -24 -259 -25 -346 -1 -34 9 -75 16 -91 16
-16 0 -38 7 -49 15 -10 8 -25 15 -32 15 -8 0 -50 16 -93 35 -44 19 -91 35
-105 35 -13 0 -51 11 -83 25 -128 54 -329 92 -345 66z" style="fill:#38A000;fill-opacity:1"/>
</g>
</svg>