<?xml version="1.0" encoding="iso-8859-1"?>
<!-- Generator: Adobe Illustrator 16.0.0, SVG Export Plug-In . SVG Version: 6.00 Build 0)  -->
<!DOCTYPE svg PUBLIC "-//W3C//DTD SVG 1.1//EN" "http://www.w3.org/Graphics/SVG/1.1/DTD/svg11.dtd">
<svg version="1.1" id="Capa_1" xmlns="http://www.w3.org/2000/svg" xmlns:xlink="http://www.w3.org/1999/xlink" x="0px" y="0px"
	 width="612px" height="612px" viewBox="0 0 612 612" style="enable-background:new 0 0 612 612;" xml:space="preserve">
<g>
	<g>
		<g id="group-1svg">
			<path id="path-1" d="M185.167,612c-3.339,0-11.959-0.941-19.842-9.678c-13.833-15.348-18.104-46.625-13.066-95.638
				c8.659-84.046,38.82-194.525,45.362-217.842c-5.135-17.298-19.88-78.601,12.571-126.108
				c15.221-22.288,40.286-35.597,67.039-35.597c20.608,0,39.586,8.377,52.031,22.967c9.892,11.62,20.551,32.704,15.056,67.194
				c-1.602,7.805-14.9,70.922-25.016,91.871c-4.28,8.872-4.64,21.511-0.825,29.403c2.437,5.019,5.349,5.669,6.456,5.911l1.641,0.369
				c5.406,1.214,11.532,2.582,17.938,2.582c8.29,0,33.5,0,58.682-58.933c19.647-46.003,20.55-95.977,2.339-130.399
				c-12.988-24.55-34.441-39.907-63.768-45.644c-17.891-3.504-34.868-5.281-50.478-5.281c-62.389,0-87.997,27.2-97.695,43.411
				c-55.274,92.336-15.648,147.62-13.94,149.93c2.553,3.437,3.534,7.921,2.563,12.095l-6.902,29.656
				c-0.097,0.427-0.214,0.864-0.359,1.281l-7.319,22.064c-1.34,4.059-4.407,7.32-8.368,8.922c-3.951,1.592-8.417,1.378-12.212-0.603
				c-2.291-1.203-56.409-30.189-76.067-94.472c-14.726-48.178-6.154-102.383,25.492-161.123C149.182,20.541,236.296,0,300.093,0
				C360.53,0,410.212,18.26,419.27,22.773c39.906,19.881,165.199,97.375,118.42,268.107
				C496.753,440.306,394.302,456.43,352.152,456.43c-13.804,0-24.637-1.65-30.18-3.203c-10.066-2.825-24.472-9.853-35.732-15.804
				c-11.581,45.217-43.741,151.328-95.035,173.383c-1.339,0.573-2.767,0.952-4.213,1.107C186.478,611.961,185.682,612,185.167,612z
				 M277.232,156.289c-16.881,0-33.354,8.766-42.994,22.88c-29.093,42.615-7.902,103.946-7.678,104.568
				c1.009,2.854,1.106,5.97,0.262,8.882c-0.359,1.262-36.334,127.224-45.585,217.056c-4.922,47.828,1.058,65.35,4.358,71.106
				c33.995-22.88,64.729-113.537,76.717-168.5c1-4.553,4.116-8.368,8.387-10.241c4.262-1.874,9.164-1.593,13.192,0.767
				c8.688,5.067,33.859,18.968,45.925,22.356c2.116,0.592,10.261,2.126,22.336,2.126c44.053,0,123.1-18.716,157.453-144.106
				c39.791-145.222-58.72-212.106-102.927-234.122c-6.901-3.446-51.517-19.919-106.586-19.919
				c-81.26,0-141.145,34.665-177.975,103.024c-27.724,51.468-35.597,98.015-23.405,138.378
				c10.173,33.646,32.481,55.904,47.343,67.621l1.049-3.164l5.349-22.978c-11.464-19.492-39.47-83.483,16.153-176.402
				c12.872-21.502,45.926-57.584,122.682-57.584c17.473,0,36.344,1.951,56.069,5.814c37.849,7.407,66.864,28.375,83.92,60.613
				c22.56,42.654,22.064,100.782-1.311,155.492c-22.026,51.556-49.983,76.62-85.454,76.62c-9.639,0-18.113-1.902-24.316-3.291
				l-1.563-0.349c-11.464-2.534-20.812-10.223-26.354-21.647c-7.688-15.872-7.368-37.897,0.806-54.808
				c7.261-15.027,18.773-66.049,22.589-84.444c2.844-17.939-0.068-33.043-8.562-43.013
				C300.103,160.812,289.482,156.289,277.232,156.289z" style="fill:#A100F2;fill-opacity:1" />
		</g>
	</g>
	<g>
	</g>
	<g>
	</g>
	<g>
	</g>
	<g>
	</g>
	<g>
	</g>
	<g>
	</g>
	<g>
	</g>
	<g>
	</g>
	<g>
	</g>
	<g>
	</g>
	<g>
	</g>
	<g>
	</g>
	<g>
	</g>
	<g>
	</g>
	<g>
	</g>
</g>
<g>
</g>
<g>
</g>
<g>
</g>
<g>
</g>
<g>
</g>
<g>
</g>
<g>
</g>
<g>
</g>
<g>
</g>
<g>
</g>
<g>
</g>
<g>
</g>
<g>
</g>
<g>
</g>
<g>
</g>
</svg>
